<svg xmlns="http://www.w3.org/2000/svg" version="1.1" width="512" height="512" x="0" y="0" viewBox="0 0 24 24" style="enable-background:new 0 0 512 512" xml:space="preserve" class=""><g><g><g><g><circle cx="20.5" cy="6.5" r="1.5" fill="#ffffff" data-original="#000000" class=""></circle></g><g><path d="m16.5 8h-13c-.8281 0-1.5-.6719-1.5-1.5s.6719-1.5 1.5-1.5h13c.8281 0 1.5.6719 1.5 1.5s-.6719 1.5-1.5 1.5z" fill="#ffffff" data-original="#000000" class=""></path></g></g><g><path d="m16.5 14h-13c-.8281 0-1.5-.6719-1.5-1.5s.6719-1.5 1.5-1.5h13c.8281 0 1.5.6719 1.5 1.5s-.6719 1.5-1.5 1.5z" fill="#ffffff" data-original="#000000" class=""></path></g><g><path d="m10.5 20h-7c-.8281 0-1.5-.6719-1.5-1.5s.6719-1.5 1.5-1.5h7c.8281 0 1.5.6719 1.5 1.5s-.6719 1.5-1.5 1.5z" fill="#ffffff" data-original="#000000" class=""></path></g></g></g></svg>